<svg width="287" height="260" viewBox="0 0 287 260" fill="none" xmlns="http://www.w3.org/2000/svg">
<path d="M68.3913 168.132C68.7899 168.479 69.2527 169.431 69.4734 171.23C69.5821 172.116 68.9947 172.704 68.6146 173.203C68.1949 173.753 67.5554 173.958 67.2499 174.232C66.7134 174.713 68.8407 174.613 69.3498 174.99C70.062 175.516 70.6311 176.241 70.9809 176.852C71.3131 177.433 71.524 177.931 71.6025 178.025C72.2729 178.821 70.9237 175.329 70.8612 174.572C70.8325 174.225 71.0034 173.954 71.2385 173.689C71.9706 172.864 72.7813 172.712 73.2317 172.224C74.2251 171.147 71.3184 170.436 70.4533 169.698C70.1175 169.435 69.805 169.171 69.4878 168.865C69.3446 168.723 69.2372 168.61 69.1033 168.44" stroke="#F7EAD7" stroke-width="1.33359" stroke-linecap="round"/>
<path d="M92.2357 97.5574C91.9261 97.7002 90.0433 98.6037 88.6725 99.1349C87.6883 99.5162 85.0094 100.651 83.1336 101.467C81.2166 102.301 80.226 103.091 79.2726 103.651C78.447 104.136 77.3565 104.877 76.1285 105.724C75.6999 106.019 75.3519 106.377 75.2899 106.798C75.115 107.983 77.7401 107.363 78.628 107.436C79.0491 107.47 79.5639 107.514 79.9111 107.648C81.1954 108.144 76.0983 108.705 73.7523 109.595C72.6143 110.027 71.6671 110.667 70.8461 111.254C70.071 111.808 69.3417 112.433 68.7472 113.159C67.9826 114.093 67.0592 115.049 66.2775 115.861C65.3318 116.844 64.1766 118.011 63.3742 118.858C62.6552 119.618 62.2315 120.322 61.9782 120.804C61.5294 121.657 64.5866 121.268 65.6352 121.335C66.9072 121.416 68.0564 121.939 68.4365 122.072C69.238 122.351 66.2626 122.39 64.1294 122.712C63.1413 122.861 62.4277 122.955 61.9628 123.1C61.0447 123.386 60.8942 124.732 60.3584 126.259C59.9882 127.315 59.588 128.552 59.3132 129.631C59.1992 130.079 59.1219 130.518 59.2014 130.833C59.3948 131.597 61.6974 129.893 63.642 129.144C63.9842 129.012 64.1933 128.932 63.9042 129.146C61.6361 130.823 60.4717 131.819 59.9336 132.487C59.7998 132.653 59.6902 132.831 59.6668 133.032C59.5624 133.931 60.1884 135.036 60.5143 136.092C61.2406 138.445 61.7759 141.614 62.3092 142.791C62.7237 143.706 63.3436 144.599 63.8243 145.138C64.363 145.743 64.8498 143.263 65.4532 142.295C66.0838 141.284 66.8526 140.778 67.9448 138.381C68.7716 136.566 70.0492 135.501 71.06 133.821C71.9524 132.338 72.1872 130.75 72.5558 129.188C72.674 128.687 72.6657 128.246 72.701 128.086C72.9179 127.101 72.883 130.165 72.9022 131.404C72.9213 132.643 73.0184 133.727 73.1796 134.502C73.2432 134.808 73.8386 134.162 74.1666 133.815C74.9351 133.001 74.6862 131.625 74.5501 130.214C74.5164 129.865 74.5335 129.54 74.6334 129.433C74.7333 129.327 74.9312 129.448 75.0812 129.637C75.7028 130.42 75.6686 131.194 75.8939 131.497C76.0009 131.64 76.2803 131.559 76.5968 131.214C78.1487 129.522 78.6346 128.413 79.5196 127.581C80.6339 126.535 81.6756 125.858 82.4002 125.075C83.1283 124.289 83.4635 123.118 83.9579 121.121C84.2351 120.002 83.8498 117.648 83.7192 116.109C83.6566 115.371 84.6719 117.432 85.1126 118.226C85.5972 119.099 85.7591 119.822 85.932 120.043C86.4549 120.709 86.8588 118.332 87.391 117.146C88.2621 115.206 88.6271 114.257 89.1124 112.879C89.6719 111.29 90.1077 109.671 90.607 108.059C90.9273 107.024 91.301 105.883 91.5967 104.941C91.9422 103.841 92.2658 102.369 92.4615 101.41C92.5547 100.953 92.449 100.46 92.4268 100.207C92.3565 99.4051 93.0721 101.971 93.9421 104.186C94.7701 106.294 95.6601 107.116 96.9711 108.971C99.4074 112.417 101.522 113.692 102.315 114.212C103.359 114.895 104.529 115.195 105.219 115.432C105.842 115.647 105.138 113.783 105.619 112.211C105.842 111.481 106.363 114.149 106.699 115.105C107.086 116.207 107.732 117.774 108.382 118.899C108.84 119.692 110.239 120.514 111.55 121.405C113.562 122.772 114.714 123.258 116.034 123.833C117.204 124.343 117.965 124.635 118.457 124.693C119.338 124.796 118.868 122.842 119.027 121.924C119.066 121.698 119.064 121.485 119.122 121.494C119.936 121.613 120.047 123.111 120.663 124.027C121.462 125.215 122.494 125.754 123.104 126.163C123.672 126.544 122.876 124.297 122.475 122.009C122.392 121.533 122.309 121.339 122.485 121.504C124.528 123.427 126.022 126.565 127.1 128.171C127.941 129.422 129.264 130.242 129.975 130.879C130.781 131.602 131.542 132.206 132.31 132.9C132.646 133.204 133.098 133.574 133.742 133.631C135.966 133.831 135.898 130.126 136.173 128.918C136.425 127.807 136.132 126.825 135.849 125.124C135.538 123.258 135.211 121.903 134.982 121.514C134.545 120.771 132.45 120.228 131.025 119.725C130.615 119.58 130.202 119.351 129.952 119.048C129.093 118.006 133.246 118.078 134.499 118.244C134.798 118.283 135.026 118.326 135.042 118.295C135.611 117.206 132.973 115.757 132.242 114.489C131.585 113.352 131.074 112.155 130.56 111.386C130.422 111.179 130.262 110.971 130.053 110.861C128.939 110.276 127.264 111.185 126.361 111.485C125.442 111.79 124.442 112.145 123.543 112.53C123.331 112.62 123.133 112.688 123.088 112.618C122.687 111.999 123.903 111.216 124.656 110.597C125.798 109.658 126.691 109.571 126.964 109.316C127.093 109.195 127.024 108.956 126.915 108.748C126.345 107.665 124.927 107.077 124.1 106.645C123.186 106.167 121.778 105.443 120.508 104.683C119.72 104.211 118.897 103.828 118.045 103.4C117.045 102.897 115.877 102.381 115.103 102.003C114.283 101.603 113.344 101.722 112.012 101.828C108.677 102.093 107.685 102.722 106.922 102.858C106.213 102.985 108.106 101.254 108.988 100.617C109.734 100.077 110.493 99.9983 110.778 99.8476C111.467 99.4838 108.643 99.5275 103.091 99.2944C101.015 99.2072 99.7009 99.1027 98.7188 99.0119C97.7202 98.9196 96.856 98.6644 95.8223 98.4614C95.1773 98.3804 94.5287 98.3231 93.9731 98.2741C93.7133 98.2496 93.4985 98.2258 93.0317 98.1991" stroke="#F6EBD9" stroke-width="1.33359" stroke-linecap="round"/>
<path d="M64.5936 144.498C65.4298 140.115 66.1404 137.041 67.1615 133.286C67.7469 131.133 68.6212 129.311 69.0972 128.109C69.5875 126.872 70.3524 125.575 70.9865 124.531C72.3451 122.293 74.1174 119.912 76.8914 116.886C79.9819 113.514 82.7034 111.065 84.212 109.611C85.2275 108.533 86.5364 106.996 87.7908 105.306C88.2707 104.638 88.4327 104.351 88.6281 103.953" stroke="#F6EBD9" stroke-width="1.33359" stroke-linecap="round"/>
<path d="M94.1504 99.0392C94.4772 99.6018 96.1951 101.858 97.2933 102.986C98.236 103.955 101.844 105.589 104.317 106.635C106.606 107.602 109.958 108.738 111.17 109.167C111.669 109.344 113.93 110.375 117.417 111.913C119.619 112.884 121.164 113.844 122.451 114.744C124.873 116.435 128.235 120.344 129.47 122.032C130.383 123.28 131.017 125.437 132.016 128.425C132.228 129.068 132.362 129.515 132.531 130.272C132.7 131.029 132.901 132.083 133.031 133.28" stroke="#F6EBD9" stroke-width="1.33359" stroke-linecap="round"/>
<path d="M91.1653 98.1112C89.6956 97.6228 86.2306 96.6196 84.7986 96.2671C83.6818 95.9922 82.3645 95.799 80.9243 95.4014C79.4913 95.0058 77.5634 94.4345 75.1912 93.9708C74.6109 93.8574 74.2122 93.8363 74.0781 93.953C73.944 94.0698 74.0831 94.3437 74.3036 94.5793C75.1601 95.4942 76.0329 95.894 76.8441 96.749C77.0858 97.0038 77.3208 97.3313 77.3492 97.55C77.3777 97.7687 77.1787 97.8812 76.9444 97.9091C75.4237 98.0906 73.0707 96.6356 71.8949 96.0071C70.3113 95.1608 68.7539 94.2278 67.9293 93.8112C67.1532 93.4191 66.081 93.7941 65.0908 93.8341C63.9708 93.8794 61.136 94.4434 58.6058 94.8782C56.9429 95.164 55.5766 95.5916 54.9096 95.9537C54.1075 96.3892 56.5252 97.0989 57.3996 97.6991C58.3207 98.3313 59.2704 99.6996 59.8812 100.854C59.9682 101.018 59.5398 101.133 59.0884 101.058C56.5231 100.634 54.576 99.2828 53.5341 98.822C53.0356 98.6015 52.4675 98.5012 51.8978 98.4619C50.8356 98.3886 49.9484 99.5937 48.8443 100.552C48.0562 101.236 47.0809 101.884 46.3852 102.607C45.2747 103.761 50 103.165 50.2109 103.293C51.0761 103.819 47.1079 104.118 45.8393 104.464C44.9849 104.697 44.0626 105.371 42.9994 106.441C41.4019 108.049 40.6875 110.594 40.0592 112.588C39.6119 114.008 39.4444 115.458 39.495 115.878C39.6816 117.427 43.413 116.706 44.729 116.484C45.9514 116.279 47.946 115.238 49.6609 114.353C50.8309 113.75 52.6207 112.206 54.6151 110.525C56.8017 108.683 58.7232 107.615 59.6145 107.164C60.2663 106.834 58.5712 108.472 57.8676 109.222C56.8801 110.275 55.8099 111.079 55.0379 111.748C54.704 112.037 54.4402 112.467 54.4764 112.853C54.6651 114.86 58.4953 112.724 58.8527 112.381C59.738 111.53 60.0706 110.473 60.8317 109.27C61.0012 109.003 61.0493 108.767 61.0974 108.762C61.8275 108.672 60.9652 110.59 60.6808 111.538C60.6042 111.793 60.5291 112.078 60.5888 112.288C60.6485 112.498 60.8452 112.624 61.2393 112.682C64.0282 113.089 68.4328 111.705 70.2437 111.153C71.1681 110.872 71.8845 110.049 72.5518 109.067C73.1736 108.152 73.4491 107.312 73.7475 106.516C73.8007 106.374 74.0872 106.539 74.253 106.715C74.5339 107.138 74.8283 107.708 75.1597 108.278C75.3154 108.531 75.4455 108.714 75.9771 109.213" stroke="#F6EBD9" stroke-width="1.33359" stroke-linecap="round"/>
<path d="M70.6305 94.2419C70.2897 93.9015 69.5603 93.0481 68.8979 92.296C67.4604 90.6637 65.302 89.4529 63.9343 88.8229C63.6218 88.679 63.3082 88.6254 63.4181 88.539C64.6627 87.5599 66.2377 88.1323 66.6459 87.9412C68.5773 87.0366 62.9278 87.531 62.0447 87.5355C61.0174 87.5408 59.7703 87.472 58.7808 87.2767C57.9314 87.1091 56.409 86.0494 53.7697 84.2567C52.4412 83.3544 51.6814 83.123 51.1021 82.8628C50.8264 82.7389 50.5714 82.6698 50.8225 82.4268C52.6838 80.6255 54.6709 80.6874 55.7048 80.3712C57.4647 79.833 60.3735 79.5705 61.4269 79.6591C62.4043 79.7412 64.4757 81.0427 65.9099 81.9479C66.9619 82.6119 64.4485 80.0493 64.0243 79.2541C63.467 78.2094 66.8703 79.5408 68.9839 79.8733C70.2268 80.0688 71.1648 80.2901 72.2132 80.6673C73.6404 81.1809 73.7637 83.9497 73.8306 84.3017C74.096 85.6973 73.434 81.6635 73.4144 80.7008C73.408 80.3854 73.78 80.4689 74.0275 80.559C75.0686 80.9383 76.5343 81.6814 77.5887 82.1787C78.447 82.5835 79.2432 83.1228 80.1261 83.6283C81.52 84.4264 82.4575 85.2071 83.1409 85.926C83.8355 86.6567 84.5662 87.8524 85.1729 89.2413C85.7149 90.4823 85.8794 91.3617 86.0538 91.8707C86.1417 92.127 86.2055 92.3868 86.1417 91.9024C85.7187 88.6874 85.7488 87.7841 85.6462 86.7287C85.6214 86.4736 85.6205 86.2543 85.7716 86.3219C86.9994 86.871 87.5044 88.9104 88.5051 90.9241C88.7982 91.5137 89.5643 93.1601 90.6515 94.9146C91.599 96.4436 91.1367 91.5282 91.396 90.0583C91.631 88.7264 92.3145 87.4795 92.8915 86.7023C93.6236 85.716 94.641 84.9741 95.0702 84.8918C96.4984 84.6178 96.2574 87.87 96.7607 88.4157C97.4727 89.1877 97.1011 86.3545 97.1577 85.2533C97.242 83.6142 98.0414 82.6218 99.2462 81.2423C101.244 78.9553 102.458 78.3591 103.417 77.7323C103.887 77.4255 104.377 76.9709 104.956 76.6628C105.205 76.5303 105.441 76.629 105.68 77.0225C106.853 78.9505 106.961 79.6491 107.2 79.7646C108.056 80.1789 107.292 77.3473 107.367 76.4439C107.407 75.9598 107.508 75.4997 107.671 75.0937C108.034 74.1879 109.154 73.8746 110.824 73.2126C112.425 72.5775 114.336 72.0324 114.751 72.1099C116.01 72.3451 114.582 74.4786 114.671 74.8287C114.985 76.0631 116.851 72.5144 119.774 71.4571C123.682 70.043 126.358 70.7861 128.133 70.6717C129.338 70.5941 130.241 70.97 130.886 71.2431C132.434 71.8986 127.12 73.8656 125.966 74.9517C125.199 75.6731 124.388 76.5051 123.343 76.9677C122.475 77.3519 118.588 78.7993 113.793 80.3099C112.8 80.6225 115.945 80.4225 118.359 80.0055C119.962 79.7285 120.626 79.445 120.881 79.5162C121.886 79.7967 119.731 81.4031 118.77 82.3948C117.94 83.2516 116.278 84.2768 115.04 85.0267C113.877 85.7315 112.658 86.319 111.861 87.0051C110.778 87.9371 109.99 88.6169 109.128 89.0535C107.669 89.3356 105.486 89.6108 103.921 89.759C103.291 89.8281 102.993 89.8848 102.695 89.9897" stroke="#F6EBD9" stroke-width="1.33359" stroke-linecap="round"/>
<path d="M91.62 98.013C91.7801 97.4415 91.9948 95.8607 92.4483 94.6708C92.7406 93.9038 93.8101 93.2051 96.258 91.638C98.0956 90.4618 101.27 88.7182 103.26 87.5223C107.163 85.1765 107.909 84.0117 110.103 81.3951C111.213 80.0703 112.237 79.2128 113.667 78.3887C115.049 77.6161 117.274 77.1338 120.133 76.1722C120.683 75.9284 121.042 75.7254 121.403 75.4689" stroke="#F6EBD9" stroke-width="1.33359" stroke-linecap="round"/>
<path d="M93.2584 97.2604C93.481 97.0461 95.0279 95.5712 96.5244 94.4227C98.7209 92.737 99.8853 91.7575 102.151 90.4148C103.502 89.6142 105.468 89.2461 107.187 88.8772C108.215 88.6565 109.181 88.7109 109.969 88.7539C110.746 88.7963 108.718 90.4388 108.085 91.4476C107.603 92.2158 107.471 93.0321 107.603 93.2588C108.468 94.7451 109.47 90.847 110.302 89.8155C111.48 88.3553 113.574 87.8108 115.26 87.127C116.723 86.5334 118.658 86.328 119.708 86.2039C121.474 85.9951 123.323 86.1444 124.721 86.2585C125.795 86.3462 126.949 86.352 128.008 86.4078C128.353 86.426 128.794 86.4564 128.968 86.567C129.617 86.9817 127.643 88.5215 126.618 89.7112C126.163 90.2384 125.939 90.8053 125.79 91.3634C125.703 91.6919 125.694 92.1357 126.011 92.0747C128.59 91.5786 129.827 89.4091 130.744 88.7705C131.57 88.1951 132.824 88.0527 133.908 88.2401C135.2 88.4635 136.013 89.2255 136.997 89.6726C138.324 90.2754 139.005 90.6426 139.501 90.9184C139.737 91.0497 139.95 91.149 139.69 91.3635C138.016 92.746 136.624 92.946 135.962 93.6114C135.344 94.2335 138.641 93.337 139.939 93.1776C140.511 93.1073 141.034 93.054 141.442 93.1073C142.42 93.2349 143.245 94.3975 144.549 95.6219C145.985 96.9705 146.559 98.3437 147.056 99.2007C147.766 100.425 147.999 101.918 148.206 103.249C148.28 103.719 147.994 103.795 147.775 103.812C146.379 103.92 144.375 103.573 142.903 103.52C140.168 103.422 137.294 104.029 136.308 103.696C134.836 103.199 133.404 102.58 132.044 101.988C130.672 101.391 128.621 100.131 127.566 99.5043C127.272 99.3295 128.958 100.669 130.317 101.607C131.169 102.196 132.018 102.696 133.353 103.683C133.569 103.843 133.323 103.998 133.111 104.046C132.239 104.245 131.171 104.179 130.206 104.063C129.182 103.94 128.29 102.538 126.732 101.422C126.21 101.049 127.451 102.889 128.037 103.717C128.305 104.096 128.666 104.499 128.85 104.871C129.211 105.601 126.711 104.904 125.546 104.911C124.644 104.893 123.74 104.934 122.8 104.984C122.556 105 122.3 105.02 121.67 104.937" stroke="#F6EBD9" stroke-width="1.33359" stroke-linecap="round"/>
<path d="M93 97.5089C93.1641 97.701 93.9333 98.0866 95.4997 98.3584C98.1869 98.8247 101.452 98.358 102.949 98.2844C105.224 98.1727 106.62 97.8542 108.713 97.5261C109.168 97.4547 109.395 97.4472 111.681 97.1865C113.968 96.9258 118.309 96.4192 120.923 96.1676C125.483 95.7286 128.023 95.8782 129.876 96.025C131.107 96.1226 132.28 96.2575 133.534 96.5597C135.126 96.9434 136.217 97.4257 137.637 97.9692C139.867 98.8224 141.162 99.7469 142.21 100.404C143.095 100.979 143.87 101.649 144.369 102.116C144.595 102.337 144.768 102.526 144.945 102.719" stroke="#F6EBD9" stroke-width="1.33359" stroke-linecap="round"/>
<path d="M90.5801 109.153C90.6343 109.27 90.861 109.514 91.3207 109.825C92.6183 110.11 94.0637 110.032 95.1405 109.802C95.5696 109.696 95.7607 109.611 96.2754 109.169" stroke="#F6EBD9" stroke-width="1.33359" stroke-linecap="round"/>
<path d="M87.9617 116.617C87.9507 117.866 87.9854 118.952 88.2713 120.294C88.3807 120.807 88.9796 120.982 89.5385 121.105C90.7027 121.36 91.7659 120.993 92.6617 120.951C93.5542 120.909 94.4252 120.919 95.4776 121.08C96.3102 121.208 97.0145 120.812 97.3798 120.551C98.4579 119.781 97.9754 117.926 97.5842 115.531C97.3736 114.242 97.3367 113.321 97.1056 111.769C97.0437 111.36 96.9936 111.014 96.9392 110.728C96.8848 110.441 96.8276 110.226 96.6402 109.587" stroke="#F6EBD9" stroke-width="1.33359" stroke-linecap="round"/>
<path d="M88.8294 120.841C88.8629 121.187 89.0278 122.613 89.1287 123.878C89.2355 125.217 89.3557 126.556 89.4735 127.843C89.6478 129.747 90.2773 132.763 90.7861 133.521C91.2576 134.224 92.5125 133.748 93.5604 133.647C95.0014 133.507 96.1188 133.455 97.3143 133.345C98.7373 133.213 99.6029 132.507 100.193 131.831C100.782 131.158 100.522 130.048 100.313 128.693C100.145 127.612 100.107 126.615 99.8874 125.212C99.5218 122.874 99.0915 121.892 98.6946 120.965C98.5951 120.745 98.5097 120.551 98.4229 120.354C98.3361 120.157 98.2506 119.963 98.0432 119.394" stroke="#F6EBD9" stroke-width="1.33359" stroke-linecap="round"/>
<path d="M90.6757 133.667C90.8062 134.545 90.9649 135.939 91.1386 137.194C91.2881 138.274 91.7056 140.943 92.2035 143.263C92.2746 143.595 92.3648 143.816 92.4871 143.996C93.0045 144.756 94.3561 144.595 95.5334 144.639C96.9724 144.692 99.2018 144.087 100.365 143.753C101.513 143.422 102.565 142.924 103.317 142.402C104.175 141.807 103.357 139.668 102.963 138.321C102.67 137.321 102.166 136.543 101.64 135.389C101.057 133.895 100.808 133.151 100.664 132.695C100.595 132.463 100.535 132.232 100.381 131.766" stroke="#F6EBD9" stroke-width="1.33359" stroke-linecap="round"/>
<path d="M93.6629 144.671C93.7519 145.505 94.0185 147.819 94.2706 148.81C94.4937 149.687 94.9771 151.161 95.3545 152.318C95.627 153.153 96.0364 154.032 96.7231 155.005C97.0045 155.403 97.4413 155.621 97.88 155.811C98.8459 156.229 100.384 155.834 102.183 155.718C104.884 155.545 105.867 154.538 106.744 154.101C107.762 153.595 108.048 152.54 108.134 151.683C108.229 150.73 107.067 149.649 106.094 148.168C105.247 146.879 104.651 145.497 104.205 144.524C104.009 144.083 103.816 143.637 103.628 143.207C103.534 142.998 103.445 142.808 103.196 142.299" stroke="#F6EBD9" stroke-width="1.33359" stroke-linecap="round"/>
<path d="M97.4731 155.817C97.6113 156.543 97.8723 157.411 98.3923 158.455C99.3711 160.42 99.9355 161.337 100.284 162.153C100.662 163.035 101.179 164.042 101.737 165.007C102.228 165.853 103.083 166.417 103.964 166.703C105.72 167.272 108.257 166.026 109.1 165.674C109.969 165.309 110.718 164.9 111.643 164.419C112.109 164.176 112.634 163.982 113.085 163.678C113.487 163.407 113.514 162.862 113.511 162.393C113.503 161.246 112.069 160.044 111.278 158.977C110.194 157.211 108.804 154.981 108.481 154.44C108.341 154.186 108.253 153.977 107.817 153.238" stroke="#F6EBD9" stroke-width="1.33359" stroke-linecap="round"/>
<path d="M104.049 166.76C104.218 167.907 104.681 169.822 105.05 170.948C105.325 171.788 105.802 172.741 106.346 173.709C106.951 174.785 107.83 175.699 108.421 176.484C108.705 176.86 109.137 177.082 109.63 177.206C110.707 177.476 112.038 176.836 113.081 176.473C113.95 176.17 115.249 175.79 116.884 175.233C118.091 174.821 119.329 173.994 119.994 173.08C120.667 172.155 119.395 170.693 118.59 169.608C117.212 167.752 116.462 166.794 115.743 165.667C115.18 164.8 114.658 164.077 114.303 163.664C114.135 163.474 113.993 163.323 113.743 163.137" stroke="#F6EBD9" stroke-width="1.33359" stroke-linecap="round"/>
<path d="M110.11 177.404C110.302 178.502 110.846 179.921 111.461 180.908C112.186 182.071 112.875 183.141 113.736 184.191C114.78 185.465 115.491 186.026 116.306 186.507C117.147 187.004 118.486 186.471 120.055 185.691C122.159 184.644 123.293 184.445 124.476 183.925C126.791 182.908 127.595 182.052 128.002 181.269C128.209 180.873 128.059 180.364 127.822 179.815C127.153 178.264 126.004 177.822 124.499 176.357C123.858 175.738 122.941 174.839 122.383 174.303C121.824 173.768 121.651 173.623 121.229 173.226" stroke="#F6EBD9" stroke-width="1.33359" stroke-linecap="round"/>
<path d="M133.725 154.61C133.725 154.61 153.894 135.286 172.627 137.31C191.36 139.334 201.712 134.155 214.411 118.728C227.109 103.302 249.471 103.137 249.471 103.137" stroke="#F7EAD7" stroke-width="1.33359" stroke-linecap="round"/>
<path d="M139.278 167.097C139.278 167.097 159.447 147.773 178.18 149.797C196.913 151.821 207.265 146.642 219.964 131.215C232.662 115.789 255.023 115.624 255.023 115.624" stroke="#F7EAD7" stroke-width="1.33359" stroke-linecap="round"/>
<path d="M143.763 177.183C143.763 177.183 163.932 157.859 182.665 159.883C201.398 161.906 211.751 156.727 224.449 141.301C237.147 125.875 259.509 125.71 259.509 125.71" stroke="#F7EAD7" stroke-width="1.33359" stroke-linecap="round"/>
<path d="M148.676 188.229C148.676 188.229 168.846 168.905 187.578 170.929C206.311 172.952 216.664 167.773 229.362 152.347C242.06 136.921 264.422 136.756 264.422 136.756" stroke="#F7EAD7" stroke-width="1.33359" stroke-linecap="round"/>
<path d="M71.0845 188.426C71.2252 188.372 71.615 188.162 71.8529 187.951C72.0367 187.789 72.1896 187.496 72.3438 187.103C72.4433 186.849 72.5888 186.481 72.7097 186.039C72.8768 185.429 72.7604 185.096 72.7307 184.917C72.724 184.877 72.7203 184.843 72.7256 184.864C72.8009 185.16 72.8936 185.477 73.1337 185.74C73.3788 186.009 73.832 186.293 74.2542 186.522C74.8667 186.853 75.1332 186.828 75.506 186.741C76.138 186.592 76.449 186.434 76.4584 186.436C76.7729 186.496 75.7722 186.936 75.5011 187.202C75.3765 187.324 75.1841 187.694 74.9258 188.212C74.8062 188.452 74.7748 188.674 74.7777 188.948C74.7806 189.222 74.8353 189.548 74.9243 189.861C75.0991 190.476 75.2743 190.81 75.3681 191.044C75.444 191.233 75.5935 191.558 75.6482 191.713C75.7029 191.868 75.6624 191.84 75.4566 191.509C75.2507 191.178 74.8806 190.544 74.6413 190.158C74.402 189.772 74.3047 189.654 74.0742 189.443C73.8437 189.233 73.483 188.934 73.1602 188.697C72.2488 188.113 72.112 188.096 71.9711 188.099C71.9347 188.102 71.8972 188.111 71.8515 188.122" stroke="#F6EBD9" stroke-width="1.33359" stroke-linecap="round"/>
<path d="M78.7127 196.675C78.9616 197.235 79.1725 197.897 79.2411 198.506C79.2995 199.024 78.9628 199.269 78.829 199.517C78.6378 199.871 78.3958 200.082 78.2036 200.28C78.1393 200.346 78.0425 200.385 77.9836 200.448C77.8002 200.644 79.0532 200.636 79.4697 200.744C79.7485 200.817 80.1461 201.03 80.4709 201.208C80.6724 201.319 80.9316 201.534 81.198 201.79C81.4197 202.003 81.5311 202.176 81.65 202.394C81.8882 202.831 82.0844 203.267 82.1941 203.46C82.3507 203.735 81.7107 202.484 81.6308 202.048C81.5896 201.823 81.6643 201.575 81.7407 201.303C81.9282 200.634 82.3466 200.253 82.5061 200.013C82.5432 199.957 82.4575 199.887 82.1917 199.659C81.9259 199.431 81.4503 199.037 81.1723 198.811C80.8327 198.535 80.6943 198.437 80.4924 198.252C80.155 197.927 79.7558 197.481 79.4375 197.054C79.3104 196.869 79.2529 196.748 79.1882 196.592" stroke="#F6EBD9" stroke-width="1.33359" stroke-linecap="round"/>
<path d="M86.5871 209.913C86.9602 209.756 87.2554 209.634 87.5886 209.472C87.8643 209.337 88.013 209.17 88.0706 209.108C88.1389 209.033 88.3011 208.633 88.5134 208.051C88.697 207.548 88.5177 207.174 88.3773 206.913C88.3356 206.835 88.7112 207.201 89.4906 207.877C89.8471 208.186 90.1903 208.346 90.4409 208.468C90.8479 208.667 91.1046 208.727 91.2789 208.754C91.7172 208.821 92.2012 208.478 92.5011 208.392C92.7729 208.314 92.4228 209.232 92.4521 209.897C92.4676 210.249 92.5842 210.623 92.7117 210.966C92.8391 211.309 92.9993 211.607 93.1803 211.897C93.7465 212.802 93.8909 212.863 93.9071 212.875C94.2694 213.133 93.0497 212.258 92.555 212.088C91.7339 211.805 91.099 211.723 90.937 211.708C90.5143 211.669 90.2912 211.705 89.9678 211.837C89.8816 211.872 89.8223 211.932 89.6161 211.77C89.4099 211.609 89.0637 211.233 88.7247 210.917C88.0905 210.327 87.6939 210.081 87.5756 210.021C87.3782 209.929 87.203 209.857 87.0975 209.829C87.0454 209.817 86.9964 209.811 86.9114 209.803" stroke="#F6EBD9" stroke-width="1.33359" stroke-linecap="round"/>
<path d="M100.349 215.029C100.412 215.12 100.633 215.545 100.926 216.147C101.105 216.514 100.955 217.164 100.854 217.567C100.808 217.754 100.644 217.886 100.516 217.999C100.408 218.094 100.24 218.242 100.108 218.376C99.8008 218.687 101.242 218.485 101.547 218.595C101.705 218.652 101.856 218.764 102.079 218.931C102.422 219.187 102.805 219.523 103.088 219.809C103.343 220.068 103.471 220.597 103.536 220.822C103.619 221.108 103.387 220.121 103.351 219.64C103.331 219.364 103.526 218.991 103.704 218.711C103.742 218.651 103.828 218.614 103.887 218.594C104.073 218.527 104.249 218.669 104.667 218.901C105.064 219.122 105.563 219.391 105.826 219.552C106.085 219.711 105.355 218.94 105.052 218.578C104.793 218.266 104.347 217.671 104.099 217.334C103.851 216.998 103.822 216.932 103.82 216.867C103.805 216.375 104.464 215.92 104.454 215.893C104.396 215.73 104.032 215.993 103.771 215.967C103.524 215.942 103.201 215.804 102.661 215.648C101.902 215.365 101.412 215.162 101.221 215.066C101.077 214.997 100.835 214.883 100.586 214.767" stroke="#F6EBD9" stroke-width="1.33359" stroke-linecap="round"/>
<path d="M113.237 217.958C113.392 218.241 113.574 218.587 113.834 219.054C114.175 219.668 114.447 220.047 114.492 220.186C114.643 220.651 114.563 221.105 114.43 221.325C114.182 221.739 113.954 221.886 113.481 222.169C113.352 222.247 113.258 222.288 113.191 222.31C113.146 222.325 113.339 222.261 113.471 222.237C113.657 222.203 114.237 222.196 114.994 222.197C115.378 222.198 115.528 222.248 115.819 222.355C116.057 222.443 116.474 222.61 116.81 222.774C117.402 223.064 117.664 223.278 117.796 223.367C118.292 223.698 118.472 224.013 118.643 224.251C118.886 224.591 118.241 223.283 118.225 222.891C118.207 222.461 118.342 222.091 118.511 221.849C118.773 221.472 119.161 221.301 119.525 221.182C120.186 220.967 120.679 220.94 120.776 220.935C120.879 220.93 120.616 220.875 119.197 220.401C118.085 220.03 116.22 219.264 115.196 218.852C114.171 218.441 114.054 218.376 113.94 218.298C113.826 218.22 113.719 218.131 113.649 218.072C113.58 218.012 113.55 217.983 113.513 217.939" stroke="#F6EBD9" stroke-width="1.33359" stroke-linecap="round"/>
<path d="M128.891 218.132C128.929 218.176 129.038 218.33 129.253 218.685C129.43 218.979 129.71 219.523 129.863 219.841C130.118 220.369 130.001 220.707 129.907 220.955C129.876 221.038 129.799 221.14 129.568 221.394C129.338 221.647 128.944 222.045 128.803 222.223C128.662 222.4 128.786 222.345 128.921 222.304C129.194 222.22 129.41 222.205 129.634 222.206C130.047 222.209 130.408 222.27 130.861 222.442C131.218 222.578 131.811 222.868 132.237 223.081C132.909 223.417 133.211 223.651 133.326 223.772C133.397 223.847 133.195 223.387 132.837 222.55C132.503 221.772 132.59 221.44 132.66 221.248C132.845 220.739 133.177 220.534 133.352 220.415C133.386 220.392 133.427 220.383 133.408 220.376C133.322 220.34 133.099 220.332 132.316 219.997C131.662 219.717 130.525 219.131 129.862 218.789C129.199 218.447 129.053 218.344 128.932 218.249C128.811 218.154 128.72 218.071 128.627 217.968" stroke="#F6EBD9" stroke-width="1.33359" stroke-linecap="round"/>
<path d="M139.075 215.283C139.143 215.291 139.249 215.312 139.66 215.513C140.008 215.685 140.607 216.057 140.963 216.279C141.556 216.648 141.681 217.024 141.749 217.273C141.772 217.357 141.748 217.471 141.757 217.572C141.76 217.61 141.82 217.607 141.867 217.597C142.078 217.552 142.316 217.393 142.609 217.427C142.966 217.468 143.216 217.664 143.342 217.743C143.505 217.846 143.749 218.132 144.067 218.538C144.37 218.925 144.524 219.263 144.532 219.279C144.727 219.663 144.144 218.339 144.047 217.891C143.896 217.196 144.197 216.687 144.37 216.464C144.517 216.275 144.671 216.248 144.801 216.226C144.885 216.212 145.01 216.23 144.168 216.088C143.326 215.945 141.514 215.651 140.565 215.494C139.615 215.337 139.583 215.326 139.537 215.27" stroke="#F6EBD9" stroke-width="1.33359" stroke-linecap="round"/>
<path d="M150.017 209.41C150.169 209.489 150.627 209.793 151.168 210.365C151.552 210.771 151.57 211.094 151.576 211.433C151.579 211.601 151.433 211.888 151.227 212.294C151.014 212.713 150.765 212.924 150.707 212.989C150.636 213.069 151.414 212.688 151.901 212.522C152.022 212.481 152.126 212.502 152.206 212.521C152.283 212.539 152.557 212.763 153.118 213.258C153.445 213.547 153.843 213.925 154.024 214.063C154.204 214.201 154.151 214.09 154.111 213.996C154.039 213.831 153.941 213.411 153.824 212.87C153.771 212.625 153.857 212.116 153.998 211.386C154.129 210.71 154.767 210.273 154.865 210.201C155.097 210.03 154.295 210.352 153.83 210.305C153.593 210.282 153.207 210.17 152.797 210.087C152.387 210.004 151.968 209.931 151.5 209.778C151.033 209.626 150.529 209.396 149.961 209.105" stroke="#F6EBD9" stroke-width="1.33359" stroke-linecap="round"/>
<path d="M158.468 202.902C158.602 203.024 158.865 203.25 159.058 203.459C159.325 203.747 159.465 204.484 159.506 204.942C159.529 205.202 159.387 205.685 159.419 206.059C159.465 206.585 160.329 205.398 160.551 205.251C160.75 205.119 161.086 204.999 161.537 204.851C162.257 204.615 162.473 204.724 162.714 204.803C162.899 204.864 163.048 204.978 163.165 205.081C163.226 205.134 163.295 205.18 163.202 205.078C163.11 204.975 162.854 204.721 162.617 204.438C162.142 203.874 161.88 203.375 161.767 203.077C161.687 202.865 161.688 202.701 161.699 202.568C161.725 202.231 162.049 201.927 162.179 201.784C162.231 201.727 162.259 201.706 162.166 201.753C161.855 201.912 161.594 202.072 161.437 202.159C161.153 202.317 160.59 202.467 159.983 202.601C159.743 202.648 159.639 202.65 159.451 202.637C159.262 202.624 158.991 202.595 158.649 202.518" stroke="#F6EBD9" stroke-width="1.33359" stroke-linecap="round"/>
<path d="M163.899 193.581C164.026 193.574 164.138 193.586 164.387 193.708C164.956 193.985 165.362 194.242 165.509 194.361C165.757 194.562 165.978 194.822 166.156 195.081C166.367 195.387 166.528 195.915 166.687 196.563C166.765 196.88 166.779 197.187 166.779 197.326C166.78 197.464 166.752 197.428 166.725 197.381C166.668 197.282 166.643 197.157 166.647 197.016C166.652 196.848 166.88 196.41 167.187 195.837C167.56 195.141 168.371 194.881 168.519 194.879C168.685 194.877 168.835 195.019 168.97 195.08C169.06 195.12 169.186 195.197 169.056 195.034C168.925 194.87 168.532 194.469 168.29 194.21C167.957 193.854 167.789 193.532 167.621 193.149C167.394 192.633 167.462 192.313 167.64 191.618C167.746 191.204 168.077 191.043 168.314 190.887C168.72 190.621 167.5 191.334 167.179 191.592C166.897 191.82 166.381 192.252 166.089 192.49C165.749 192.768 165.448 192.915 165.006 193.113C164.667 193.239 164.485 193.275 164.417 193.253C164.383 193.239 164.352 193.223 164.307 193.195" stroke="#F6EBD9" stroke-width="1.33359" stroke-linecap="round"/>
<path d="M168.589 183.143C168.728 183.208 169.056 183.389 169.325 183.622C169.732 183.975 169.978 184.344 170.068 184.501C170.293 184.893 170.22 185.504 170.11 186.038C170.086 186.159 170.076 186.267 170.085 186.288C170.217 186.6 170.807 185.55 171.304 185.24C171.492 185.122 171.645 185.092 171.759 185.077C172.106 185.033 172.549 185.371 172.631 185.364C173.236 185.311 171.879 184.373 171.762 184.079C171.534 183.504 171.675 183.002 171.841 182.439C171.981 181.965 172.191 181.868 172.293 181.792C172.371 181.734 172.113 181.897 171.366 182.273C170.928 182.493 170.332 182.691 170.003 182.809C169.675 182.927 169.623 182.939 169.429 182.943C169.236 182.947 168.904 182.942 168.484 182.896" stroke="#F6EBD9" stroke-width="1.33359" stroke-linecap="round"/>
<path d="M170.861 173.256C170.932 173.323 171.088 173.526 171.222 173.815C171.404 174.207 171.314 174.549 171.265 175.066C171.246 175.261 171.194 175.527 171.214 175.661C171.293 176.187 172.6 175.319 172.901 175.344C173.232 175.372 173.441 175.828 173.704 176.197C173.811 176.347 173.874 176.48 173.875 176.44C173.91 175.66 173.677 175.274 173.915 174.668C174.171 174.017 174.291 173.764 174.492 173.553C174.873 173.153 172.845 173.408 172.197 173.344C171.79 173.239 171.481 173.102 171.262 172.923C171.17 172.836 171.116 172.753 171.042 172.489" stroke="#F6EBD9" stroke-width="1.33359" stroke-linecap="round"/>
<path d="M171.008 162.956C171.166 163.284 171.485 163.965 171.521 164.391C171.559 164.843 171.291 165.238 170.94 166.218C170.768 166.697 172.601 165.462 173.018 165.427C173.287 165.405 173.609 165.805 173.957 166.13C174.097 166.26 174.303 166.498 174.387 166.585C174.53 166.733 174.009 165.658 173.874 164.745C173.774 164.067 174.234 163.11 174.549 162.784C174.63 162.701 174.796 162.666 174.845 162.652C175.143 162.569 173.992 163.013 173.36 162.942C172.962 162.919 172.108 162.744 171.097 162.467C170.731 162.359 170.663 162.32 170.522 162.188" stroke="#F6EBD9" stroke-width="1.33359" stroke-linecap="round"/>
<path d="M167.212 151.998C167.587 152.387 168.09 153.33 168.356 153.956C168.48 154.248 168.395 154.722 168.408 155.165C168.412 155.294 168.378 155.228 168.369 155.148C168.331 154.807 168.508 154.526 168.925 154.096C169.282 153.728 169.89 153.614 170.342 153.572C170.819 153.527 170.96 153.848 171.029 153.882C171.471 154.1 170.589 152.551 170.474 152.179C170.383 151.884 170.533 151.479 170.627 151.261C170.839 150.774 169.839 151.654 169.043 151.828C168.53 151.94 168.064 151.774 167.812 151.652C167.756 151.612 167.712 151.563 167.675 151.488C167.637 151.414 167.608 151.314 167.578 151.211" stroke="#F6EBD9" stroke-width="1.33359" stroke-linecap="round"/>
<path d="M162.348 141.296C162.811 141.696 163.421 142.421 163.818 143.055C164.08 143.475 164.132 143.913 164.174 144.25C164.192 144.395 164.143 144.539 164.17 144.588C164.356 144.924 164.762 144.041 165.071 143.945C165.334 143.864 165.994 144.254 166.469 144.526C166.704 144.661 166.935 144.926 167.117 145.076C167.146 145.1 166.635 144.419 166.014 143.496C165.699 143.027 165.644 142.728 165.62 142.451C165.582 142.025 165.912 141.524 166.182 141.117C166.279 140.969 166.528 140.8 166.605 140.738C166.614 140.73 166.278 140.938 165.571 141.117C163.701 141.186 163.213 141.102 162.86 141.006C162.717 140.958 162.649 140.913 162.499 140.729" stroke="#F6EBD9" stroke-width="1.33359" stroke-linecap="round"/>
<path d="M156.19 131.762C156.583 132.323 157.05 133.073 157.207 133.396C157.391 133.776 157.26 134.28 157.181 134.66C157.161 134.756 157.158 134.876 157.298 134.87C158.187 134.831 158.745 134.43 159.545 134.452C159.87 134.461 160.321 134.702 160.647 134.805C161.509 135.077 159.835 133.895 159.31 133.067C158.933 132.474 159.027 132.099 159.118 131.765C159.14 131.685 159.171 131.623 159.149 131.59C159.097 131.51 158.87 131.564 158.416 131.498C157.53 131.27 156.66 131.045 156.148 130.927C155.942 130.875 155.843 130.837 155.712 130.766" stroke="#F6EBD9" stroke-width="1.33359" stroke-linecap="round"/>
<path d="M64.3972 164.037C64.3283 164.254 64.1791 165.089 64.1922 166.853C64.1979 167.633 64.2297 168.746 64.2367 170.83C64.2401 171.838 64.3013 172.526 64.3733 173.437C64.5447 175.606 64.8411 176.409 64.9633 176.986C65.1342 177.793 65.1251 178.659 65.1784 179.554C65.2197 180.247 65.2844 181.11 65.4265 182.147C65.6334 183.655 66.1464 184.747 66.4242 185.606C66.6925 186.435 67.16 187.436 67.4375 188.314C67.918 189.837 67.8613 190.56 68.2346 191.211C68.5463 191.755 68.9427 192.28 69.6517 193.668C71.0637 196.432 71.8497 198.509 72.1451 199.237C73.3341 202.171 73.8139 202.809 74.6581 204.377C75.0738 205.15 76.4463 206.972 77.4272 208.318C78.4971 209.786 79.6253 210.811 80.6781 211.905C81.4316 212.688 82.7904 213.488 83.5269 213.983C84.6424 214.733 86.8834 216.028 88.5112 216.977C89.0627 217.299 89.483 217.498 89.909 217.723C90.6991 218.14 92.4902 219.258 94.6247 220.617C96.2076 221.624 97.227 221.96 98.4301 222.458C98.8023 222.612 100.851 223.491 103.848 224.691C105.097 225.191 106.453 225.655 108.342 226.352C109.94 226.942 110.968 227.233 111.558 227.476C112.412 227.827 113.654 227.893 114.893 227.984C116.98 228.138 120.322 227.85 121.152 227.806C121.88 227.768 122.696 227.831 123.663 227.747C124.314 227.691 125.414 227.644 126.494 227.556C127.714 227.456 129.476 227.533 130.877 227.398C133.191 227.175 134.473 226.732 136.028 226.369C138.068 225.893 139.533 225.234 140.427 224.776C142.192 223.872 143.534 223.447 143.902 223.34C144.512 223.162 145.253 222.894 146.795 222.358C147.965 221.952 149.868 221.121 151.297 220.494C153.627 219.471 154.894 218.703 155.709 218.01C157.437 216.541 157.82 215.964 158.633 215.424C159.796 214.65 160.879 214.101 163.165 212.392C164.192 211.624 165.665 210.455 166.857 209.574C167.89 208.81 169 207.553 169.684 206.789C170.259 206.145 170.971 205.323 172.392 203.09C173.239 201.76 173.847 200.614 174.479 199.296C175.061 198.084 175.697 196.532 176.14 195.155C176.625 193.642 176.689 192.622 176.953 191.593C177.154 190.808 177.324 189.866 177.448 188.998C177.54 188.357 177.555 187.736 177.728 185.559C177.896 183.447 178.077 182.183 178.158 181.242C178.237 180.322 178.401 179.137 178.668 177.625C178.998 175.758 179.039 174.163 179.074 172.794C179.091 172.148 178.991 170.937 178.98 169.83C178.966 168.451 179.046 167.464 179.08 166.745C179.137 165.548 179.038 164.565 178.983 163.806C178.906 162.733 178.862 161.794 178.804 161.093C178.739 160.304 178.616 159.403 178.501 158.527C178.262 156.721 177.898 155.426 177.44 154.02C177.266 153.485 176.997 152.733 176.347 151.203C175.696 149.673 174.665 147.389 174.039 146.072C173.044 143.979 172.635 143.479 171.583 141.788C171.234 141.227 170.343 140.058 168.574 137.786C166.39 134.98 165.006 133.335 164.758 133.062C163.909 132.124 162.96 131.228 162.448 130.663C161.794 129.868 161.121 129.11 160.719 128.664C160.539 128.476 160.41 128.365 159.995 128.054" stroke="#F7EAD7" stroke-width="1.33359" stroke-linecap="round"/>
<path d="M77.3022 164.988C77.2706 165.181 77.232 165.831 77.0927 166.819C76.9288 167.982 77.044 169.233 77.103 170.864C77.1304 171.619 77.172 172.149 77.2475 172.899C77.4122 174.535 77.4517 175.491 77.4737 176.545C77.4984 177.734 77.5345 178.749 77.61 179.548C77.6641 180.122 77.8022 180.845 77.9778 181.855C78.1737 182.982 78.3603 183.488 78.8061 184.632C79.3573 186.046 80.1526 187.371 81.7271 189.734C82.6027 191.048 83.2261 191.429 84.2397 192.567C84.831 193.23 85.0634 193.844 85.7617 195.006C85.9477 195.316 86.0895 195.564 87.0127 197.009C87.9359 198.454 89.6356 201.089 90.6659 202.631C92.3378 205.133 92.9884 205.555 94.2613 206.77C95.0164 207.491 96.1221 208.057 98.6 209.283C99.7058 209.831 100.665 210.076 102.172 210.629C105.065 211.69 107.263 212.168 107.768 212.287C108.923 212.56 110.262 212.672 111.607 212.847C112.361 212.946 113.099 213.301 113.755 213.657C114.831 214.243 116.627 214.887 117.499 215.103C118.004 215.228 118.523 215.23 119.688 215.163C122.361 215.009 124.539 214.586 125.295 214.385C126.483 214.068 128.15 213.735 129.709 213.492C131.11 213.274 132.023 213.164 133.494 212.854C134.589 212.623 136.077 212.19 137.623 211.673C139.749 210.963 140.9 210.317 141.935 209.839C142.941 209.375 144.196 208.567 145.917 207.501C147.713 206.389 148.814 205.915 149.533 205.448C150.222 205 150.992 204.324 151.486 203.912C152.064 203.43 152.788 202.957 155.242 201.123C157.365 199.536 157.726 198.605 158.502 197.497C159.067 196.691 160.569 194.569 161.625 192.96C162.14 192.175 162.4 191.456 163.117 189.881C163.745 188.501 164.96 185.965 165.636 184.478C166.813 181.888 166.826 180.395 166.977 179.172C167.357 176.099 167.358 174.961 167.371 173.166C167.386 171.156 167.211 170.07 167.121 169.363C167.032 168.663 166.956 167.864 166.789 167.102C166.47 165.642 166.217 164.581 166.025 163.952C165.738 163.01 164.897 161.022 164.408 159.712C163.922 158.41 162.837 155.692 162.544 154.557C162.293 153.588 161.917 152.484 161.498 151.048C161.191 149.995 160.781 148.528 160.153 146.868C159.047 143.945 158.036 141.959 157.723 141.432C156.941 140.118 156.266 139.393 155.331 138.396C154.845 137.83 154.435 137.411 153.949 136.958C153.824 136.848 153.708 136.744 153.335 136.428" stroke="#F7EAD7" stroke-width="1.33359" stroke-linecap="round"/>
<path d="M77.2322 165.303C77.0748 165.813 76.9004 166.558 76.9203 167.259C76.9473 168.213 77.2639 169.62 77.3793 170.722C77.4746 171.634 77.5447 172.888 77.5545 173.66C77.5647 174.466 77.5977 175.229 77.6534 176.476C77.709 177.724 77.847 178.663 78.0996 179.528C78.6051 181.26 79.887 184.03 80.3098 185.065C80.462 185.437 80.9033 186.531 81.8451 188.421C83.4239 191.589 84.1908 191.948 85.0827 193.343C86.5108 195.576 86.9278 196.717 87.3891 197.46C88.0174 198.472 89.0796 199.845 89.605 200.549C90.6283 201.92 91.5076 202.995 92.4982 204.016C93.7385 205.294 94.5843 205.814 95.447 206.51C96.7827 207.588 97.4979 208.106 99.1976 209.123C100.453 209.875 102.662 210.829 104.077 211.453C106.808 212.659 108.416 213.036 110.088 213.536C111.49 213.955 113.08 214.056 114.037 214.113C114.758 214.156 115.406 214.337 116.159 214.429C117.418 214.582 118.35 214.849 119.122 215.014C120.191 215.242 121.104 215.205 122.431 215.234C123.611 215.261 124.378 215.082 125.049 215.028C126.004 214.952 127.348 214.846 129.93 214.527C131.184 214.372 132.613 214.106 134.702 213.581C136.199 213.206 137.766 212.5 139.173 212.037C139.994 211.766 140.626 211.37 141.43 210.922C142.197 210.494 143.104 209.897 144.514 209.045C145.531 208.429 146.806 207.562 147.527 207.172C148.308 206.75 148.839 206.295 149.313 205.997C149.912 205.622 150.819 205.042 151.605 204.465C152.851 203.55 153.323 202.952 153.843 202.365C154.273 201.881 154.673 201.271 155.494 200.185C156.196 199.255 156.817 198.593 157.286 198.057C157.799 197.469 158.606 196.449 159.237 195.502C159.932 194.46 160.446 193.586 161.014 192.582C161.506 191.713 161.923 191.078 162.693 189.661C163.982 187.289 164.668 185.801 165.547 183.965C166.292 182.411 167.041 180.453 167.602 178.776C168.022 177.521 168.147 176.606 168.348 175.266C168.51 174.185 168.463 173.595 168.486 172.711C168.537 170.685 168.435 169.238 168.32 167.438C168.286 166.91 168.217 166.519 167.963 165.139C167.745 163.951 167.315 161.778 167.048 160.503C166.545 158.102 166.004 156.811 165.697 156.002C165.199 154.689 163.955 151.994 163.077 150.218C162.764 149.585 162.235 148.863 161.607 147.902C161.011 146.992 160.161 145.926 159.259 144.758C158.34 143.566 157.699 142.718 157.326 142.29C155.66 140.376 154.53 138.9 153.881 138.127C153.721 137.937 153.578 137.773 153.461 137.631C153.343 137.489 153.255 137.376 153.002 137.04" stroke="#F7EAD7" stroke-width="1.33359" stroke-linecap="round"/>
<path d="M76.8281 165.332C76.5727 166.182 76.1116 167.549 75.9897 168.371C75.8375 169.397 76.1119 170.104 76.2033 171.48C76.3039 172.995 76.3876 174.001 76.5307 174.903C76.7609 176.354 77.2766 177.388 77.6456 178.33C77.7466 178.587 77.8492 178.898 78.3314 180.083C78.8135 181.269 79.6696 183.321 80.1541 184.452C81.1191 186.704 82.2906 188.951 82.697 189.708C82.9876 190.249 83.5032 191.276 83.9556 191.978C84.4561 192.755 85.3696 193.86 86.7701 195.506C87.7597 196.669 89.192 198.435 89.8395 199.36C90.5573 200.385 91.5916 201.884 93.2652 203.588C94.3323 204.675 95.5854 205.744 96.226 206.306C97.0014 206.987 97.9508 207.659 100.436 209.154C101.409 209.739 101.968 210.011 102.671 210.397C105.517 211.96 106.917 212.464 108.274 212.931C111.873 214.169 113.239 213.987 114.191 214.024C115.954 214.092 118.159 214.432 119.282 214.577C120.623 214.752 122.192 214.91 123.259 214.977C124.256 215.041 126.049 214.683 127.837 214.323C128.565 214.176 129.173 214.054 130.136 213.916C131.642 213.7 132.743 213.489 135.088 212.976C135.696 212.843 136.068 212.668 137.924 211.917C139.779 211.166 143.099 209.816 144.86 209.082C147.176 208.116 147.899 206.728 149.016 205.456C149.534 204.866 150.003 204.448 150.903 203.693C152.06 202.721 153.111 201.996 154.43 200.903C156.304 199.352 157.03 198.516 158.327 197.038C159.345 195.879 159.627 195.333 160.261 194.57C160.944 193.746 161.989 192.181 162.616 191.238C163.198 190.363 163.643 189.495 164.905 187.01C165.593 185.654 166.163 183.929 166.78 182.261C167.348 180.729 167.597 179.214 167.848 177.173C168.027 175.718 168.044 174.831 168.095 173.827C168.168 172.414 168.185 171.478 168.198 170.482C168.212 169.444 168.035 167.584 167.871 165.686C167.737 164.143 167.462 162.633 167.025 160.962C166.874 160.385 166.166 158.7 165.089 156.103C164.352 154.323 163.495 152.682 162.717 151.117C162.149 149.974 161.732 149.252 161.456 148.696C160.979 147.736 160.208 146.374 159.247 144.707C158.932 144.16 158.371 143.302 157.417 141.966C155.713 139.752 154.824 138.756 153.892 137.84C153.596 137.559 153.193 137.164 152.676 136.673" stroke="#F7EAD7" stroke-width="1.33359" stroke-linecap="round"/>
<path d="M64.4396 163.47C64.4458 163.629 64.5601 164.432 64.6039 165.179C64.6409 165.811 64.5019 166.652 64.2891 167.491C64.1412 168.075 64.1778 168.692 64.0923 169.286C63.9746 170.104 63.8338 171.414 63.7193 172.165C63.541 173.336 63.6194 174.992 63.7486 176.408C63.8808 177.858 64.4838 180.205 65.031 182.446C65.3258 183.653 65.5317 184.148 66.2754 186.06C66.9289 187.739 68.2561 190.814 69.0211 192.562C70.1405 195.12 70.487 195.569 71.1453 196.734C72.1659 198.54 72.4695 199.179 73.2806 200.432C73.9013 201.391 74.211 201.946 75.3995 203.873C76.1162 205.034 76.4978 205.767 76.8137 206.367C77.125 206.958 77.5783 207.534 78.6886 208.906C79.4443 209.84 79.9818 210.626 80.559 211.238C82.4783 213.275 84.3805 214.546 85.2809 215.129C86.0146 215.604 87.0791 216.387 88.1948 217.097C89.0808 217.661 89.7722 218.048 90.6541 218.609C93.0988 220.165 95.3081 220.985 95.8448 221.242C96.6691 221.637 97.5366 222.2 98.3975 222.762C99.6888 223.603 102.013 224.745 103.233 225.409C104.767 226.243 105.175 226.639 106.862 227.141C109.739 227.996 111.449 227.659 112.478 227.705C113.969 227.773 115.147 227.596 117 227.469C118.173 227.389 119.18 227.464 120.421 227.401C121.214 227.36 122.151 227.403 123.492 227.461C126.315 227.585 127.321 227.616 129.106 227.527C130.1 227.478 130.751 227.314 131.443 227.186C132.169 227.051 132.967 226.771 135.911 225.971C137.94 225.42 139.177 224.79 140.357 224.288C142.979 223.173 144.824 222.303 145.722 221.932C149.29 220.458 149.933 219.979 150.836 219.454C151.891 218.841 153.601 217.993 155.498 216.936C158.22 215.419 158.667 214.479 159.271 213.866C159.76 213.371 160.121 212.926 160.78 212.401C162.297 211.192 163.897 210.203 164.796 209.707C165.943 209.076 167.158 207.413 167.923 206.197C168.413 205.417 168.965 204.75 169.645 203.732C169.857 203.415 170.198 203.056 170.956 201.863C171.713 200.669 172.9 198.668 173.593 197.423C174.508 195.781 175.014 194.269 175.711 192.47C176.451 190.559 176.799 189.76 177.345 188.343C178.047 186.519 178.494 185.063 178.784 184.22C178.977 183.495 179.17 182.702 179.319 182.095C179.382 181.845 179.417 181.712 179.527 181.381" stroke="#F7EAD7" stroke-width="1.33359" stroke-linecap="round"/>
<path d="M179.153 181.32C179.388 180.88 180.092 179.153 180.484 177.304C180.755 176.03 180.331 173.684 180.206 172.48C180.095 171.42 179.889 169.719 179.717 168.594C179.562 167.576 179.424 166.668 179.327 165.931C179.179 164.813 178.99 163.466 178.731 161.977C178.228 159.081 178.04 158.312 177.842 157.523C177.704 156.971 177.294 155.653 176.995 154.499C176.695 153.344 176.32 152.118 176.042 151.117C175.835 150.368 175.616 149.75 175.429 149.212C175.133 148.359 174.291 146.107 172.642 143.656C171.502 141.962 170.725 141.48 169.911 140.258C168.808 138.601 167.551 136.616 166.437 135.086C165.385 133.642 164.924 132.848 164.433 132.234C163.772 131.408 163.084 130.192 162.723 129.427C162.44 128.616 162.147 128.102 161.694 127.618C161.557 127.495 161.407 127.376 160.945 127.107" stroke="#F7EAD7" stroke-width="1.33359" stroke-linecap="round"/>
<path d="M65.0834 163.459C64.9893 163.673 64.6798 164.359 64.3032 165.054C63.8643 165.863 63.8795 166.682 63.9466 167.516C64.0143 168.356 64.3768 169.946 64.9239 173.442C65.6863 178.314 66.2519 180.73 66.4243 181.723C66.571 182.567 66.8202 183.528 67.1711 185.341C67.452 186.793 68.3535 189.173 69.4714 192.922C70.0759 194.949 70.9398 196.539 71.8989 197.875C72.9201 199.297 74.0796 200.472 75.3402 201.763C76.5591 203.011 78.0309 204.661 78.6939 205.524C79.582 206.679 80.3929 207.509 81.4971 208.782C82.3679 209.786 83.4239 210.941 84.3813 212.02C85.3628 213.125 86.5979 214.336 87.3806 215.03C88.8824 216.362 92.2855 218.76 94.4449 220.126C95.7409 220.947 97.2628 221.443 99.1561 222.118C100.368 222.551 102.543 223.127 105.111 223.74C107.593 224.332 108.896 224.795 110.076 225.101C111.028 225.348 111.734 225.663 113.003 226.195C113.909 226.575 114.816 226.965 116.116 227.277C116.899 227.464 119.215 227.406 122.194 227.389C123.565 227.381 126.129 227.33 129.842 227.117C131.768 227.006 133.107 226.783 134.86 226.511C138.151 226.003 140.324 224.991 142.489 224.164C143.785 223.669 144.683 222.612 145.476 222.022C146.286 221.418 147.055 220.815 148.064 220.144C149.649 219.091 151.562 218.299 152.9 217.503C154.037 216.826 155.426 215.772 156.334 215.256C157.129 214.805 158.054 214.006 158.74 213.455C160.531 212.02 163.698 209.81 164.291 209.354C165.201 208.653 166.112 207.355 166.838 206.445C167.454 205.672 167.98 204.931 168.606 203.968C169.282 202.927 170.012 201.914 170.616 201.076C171.649 199.641 172.246 198.528 172.934 197.482C173.567 196.52 174.146 195.418 174.727 194.517C175.742 192.939 176.384 191.178 177.576 189.016C178.819 186.761 179.24 185.093 179.804 183C180.132 181.787 180.267 180.654 180.669 177.184C180.903 175.174 180.731 172.987 180.478 170.454C180.153 167.202 179.898 165.763 179.802 164.709C179.717 163.776 179.523 162.516 179.377 161.489C179.125 159.72 179.074 157.652 178.792 154.801C178.661 153.484 177.141 149.578 176.257 147.183C175.843 146.06 174.922 144.918 174.457 144.112C173.988 143.301 173.037 141.732 172.19 140.324C171.124 138.552 169.677 136.788 168.818 135.818C168.026 134.924 166.88 133.675 165.855 132.485C164.93 131.41 163.43 129.749 162.227 128.455C161.602 127.778 161.098 127.233 160.809 126.93C160.657 126.769 160.493 126.595 160.254 126.359" stroke="#F6EBD9" stroke-width="1.33359" stroke-linecap="round"/>
<path d="M117.474 186.788C117.816 187.992 118.554 190.189 119.135 191.295C119.634 192.244 120.435 193.059 121.096 193.857C121.795 194.666 122.844 195.651 123.914 196.387C124.168 196.53 124.403 196.639 124.944 196.901" stroke="#F6EBD9" stroke-width="1.29102" stroke-linecap="round"/>
<path d="M129.221 180.752C129.54 180.982 130.751 181.904 131.938 182.749C133.491 183.855 134.186 184.588 135.091 185.346C136.186 186.451 136.905 187.265 137.312 187.815C137.552 188.14 137.857 188.562 138.317 189.179" stroke="#F6EBD9" stroke-width="1.29102" stroke-linecap="round"/>
<path d="M124.397 196.622C124.847 196.899 125.824 197.297 127.778 197.386C130.338 197.501 132.525 196.648 133.803 195.852C134.821 195.216 135.542 194.528 136.674 193.441C137.76 192.212 138.302 191.572 138.58 191.053C138.702 190.801 138.787 190.572 138.876 189.845" stroke="#F6EBD9" stroke-width="1.29102" stroke-linecap="round"/>
<path d="M125.782 197.448C126.132 197.708 127.477 198.64 128.752 199.489C130.028 200.338 131.171 200.879 132.162 201.328C133.264 201.828 134.673 202.175 135.589 202.65C136.425 203.083 137.37 203.276 138.265 203.665C139.226 204.082 141.11 203.262 143.325 202.602C144.889 202.137 145.696 201.444 146.761 200.587C147.711 199.823 149.132 198.981 150.422 198.239C150.679 198.089 150.88 197.965 151.06 197.752C151.24 197.539 151.394 197.24 151.581 196.818" stroke="#F6EBD9" stroke-width="1.29102" stroke-linecap="round"/>
<path d="M138.958 189.859C139.617 190.171 141.344 190.819 142.95 191.378C144.026 191.752 145.577 192.527 146.981 193.174C147.955 193.623 148.947 194.149 149.881 194.726C150.374 195.052 150.818 195.402 151.16 195.756C151.324 195.936 151.469 196.117 151.848 196.629" stroke="#F6EBD9" stroke-width="1.29102" stroke-linecap="round"/>
<path d="M138.725 203.843C139.498 204.7 141.06 205.773 142.209 206.176C142.676 206.316 143.17 206.532 143.709 206.764C143.988 206.857 144.28 206.901 145.136 207.041" stroke="#F6EBD9" stroke-width="1.29102" stroke-linecap="round"/>
<path d="M152.049 195.916C152.752 196.357 153.689 196.727 154.594 197.183C155.059 197.41 155.612 197.738 156.161 198.153C156.398 198.352 156.551 198.526 156.834 198.787" stroke="#F6EBD9" stroke-width="1.29102" stroke-linecap="round"/>
<path d="M64.8402 163.783C64.7989 163.652 64.6489 162.581 64.812 161.275C65.0976 158.987 65.9491 157.621 66.5897 156.047C67.2292 154.477 68.3571 152.826 69.3981 151.118C70.0562 150.038 70.8715 149.001 71.9003 147.686C72.1432 147.38 72.3414 147.117 72.5564 146.854C72.7714 146.591 72.9973 146.336 73.3101 145.947" stroke="#F6EBD9" stroke-width="1.29102" stroke-linecap="round"/>
<path d="M76.9617 169.814C76.8899 169.156 77.0797 167.483 77.4937 166.121C77.8756 164.863 78.6904 163.06 79.8415 160.616C80.2305 159.753 80.5487 159.152 80.8757 158.689C81.0403 158.458 81.2021 158.234 81.7762 157.615" stroke="#F6EBD9" stroke-width="1.29102" stroke-linecap="round"/>
<path d="M73.1184 145.707C73.3974 145.445 74.1656 144.729 75.0542 143.937C75.9192 143.277 77.3047 142.345 78.6778 141.55C78.981 141.367 79.274 141.161 79.8102 140.79" stroke="#F6EBD9" stroke-width="1.29102" stroke-linecap="round"/>
<path d="M79.8107 140.79C79.7532 141.177 79.775 142.432 79.9293 143.793C80.4566 146.458 81.2619 149.829 82.024 153.157C82.3155 154.469 82.4138 155.013 82.5151 155.575" stroke="#F6EBD9" stroke-width="1.29102" stroke-linecap="round"/>
<path d="M162.199 128.642C162.027 128.427 161.27 127.518 160.387 126.683C159.395 125.744 158.041 124.689 155.887 123.154C154.379 122.08 152.658 121.194 151.595 120.592C150.652 120.122 149.83 119.753 149.303 119.531C149.037 119.433 148.771 119.364 148.267 119.233" stroke="#F6EBD9" stroke-width="1.29102" stroke-linecap="round"/>
<path d="M153.726 138.421C153.14 137.381 151.957 135.937 150.936 135.07C149.355 134.157 147.534 133.402 146.508 133.022C146.256 132.948 145.994 132.896 145.724 132.843" stroke="#F6EBD9" stroke-width="1.29102" stroke-linecap="round"/>
<path d="M145.669 132.854C144.899 131.691 143.343 128.401 142.435 124.767C141.996 123.007 141.627 121.828 140.93 119.619C140.388 117.898 140.03 116.953 139.948 116.319C139.802 115.196 142.714 116.273 144.101 116.292C145.533 116.311 146.625 116.648 147.73 116.979C148.689 117.266 151.067 118.819 153.125 120.256C155.275 121.757 156.599 123.104 157.763 124.022C160.259 125.918 161.101 126.592 161.862 127.636C162.03 127.886 162.183 128.063 162.352 128.296" stroke="#F6EBD9" stroke-width="1.29102" stroke-linecap="round"/>
<path d="M77.5782 167.392C78.3288 164.909 80.0708 161.17 81.3107 158.344C81.9522 157.063 82.3791 156.226 82.6408 155.684C82.7943 155.404 82.9899 155.115 83.3626 154.617" stroke="#F6EBD9" stroke-width="1.29102" stroke-linecap="round"/>
<path d="M82.0081 155.877C81.6888 156.308 80.411 158.434 79.8121 159.922C79.3863 160.98 78.3468 162.997 77.8155 164.553C77.7515 164.798 77.6649 165.027 77.5766 165.428C77.4883 165.83 77.4009 166.398 77.2288 167.108" stroke="#F6EBD9" stroke-width="1.29102" stroke-linecap="round"/>
<path d="M64.1709 165.924C64.0901 165.357 64.1027 163.635 64.2668 162.262C64.4649 160.604 65.165 159.328 65.6191 157.98C66.3148 155.916 67.8482 154.083 68.8689 152.208C70.562 149.1 71.8187 147.079 72.5727 146.241C73.5486 145.157 74.2951 144.328 75.2727 143.644C76.0965 142.998 77.6509 142.25 79.344 141.454C79.9906 141.142 80.2058 141.014 80.6209 140.787" stroke="#F6EBD9" stroke-width="1.29102" stroke-linecap="round"/>
<path d="M80.033 140.863C80.5907 141.989 81.3202 144.459 81.6742 147.784C81.9768 149.801 82.0065 151.015 82.128 152.332C82.1991 152.794 82.314 153.417 82.7354 154.476" stroke="#F6EBD9" stroke-width="1.29102" stroke-linecap="round"/>
<path d="M140.064 116.353C140.882 118.93 141.649 121.879 142.204 124.651C143.005 128.646 143.692 132.132 143.996 132.594C144.521 133.392 145.733 133.392 146.968 133.762C148.522 134.227 149.416 134.693 150.432 135.19C151.26 135.492 151.969 135.773 152.407 136.012C152.626 136.139 152.838 136.277 153.482 136.65" stroke="#F6EBD9" stroke-width="1.29102" stroke-linecap="round"/>
<path d="M140.328 116.616C140.609 116.519 141.762 116.621 143.165 117.047C145.939 117.89 148.463 118.43 151.514 120.078C155.591 122.28 158.024 124.616 158.857 125.311C159.481 125.824 160.516 126.661 161.204 127.241C161.892 127.821 162.202 128.119 162.731 128.908" stroke="#F6EBD9" stroke-width="1.29102" stroke-linecap="round"/>
<path d="M71.998 152.873C72.113 153.552 72.0923 154.145 71.9432 154.774C71.7254 155.693 71.3639 156.144 70.537 157.518C70.3522 157.824 70.2519 157.939 70.2861 157.996C70.6195 158.554 71.7391 158.247 72.3101 158.599C73.0786 159.072 73.4305 159.973 73.833 160.837C73.9779 161.149 74.0694 161.419 74.1334 161.474C74.7567 162.009 74.2642 159.393 74.6423 157.827C74.827 157.062 75.4976 156.87 75.8576 156.497C76.2845 156.055 74.8454 155.585 74.1757 155.18C73.6625 154.87 73.3396 154.294 72.9898 153.73C72.9137 153.595 72.8586 153.477 72.8055 153.301C72.7525 153.124 72.7032 152.893 72.6726 152.322" stroke="#F6EBD9" stroke-width="1.29102" stroke-linecap="round"/>
<path d="M146.119 121.871C146.568 122.533 146.838 123.283 147.103 124.197C147.348 125.044 147.279 126.026 146.996 127.191C146.831 127.869 148.063 128.063 148.697 128.583C149.178 128.976 149.653 129.711 150.117 130.423C150.221 130.582 150.307 130.734 150.303 130.719C150.168 130.154 149.808 129.538 149.631 128.767C149.482 128.119 150.348 127.407 151.202 126.814C151.618 126.524 152.101 126.473 152.35 126.361C152.788 126.164 151.196 125.44 149.912 124.709C149.168 124.286 148.388 123.756 147.816 123.355C147.692 123.262 147.579 123.169 147.471 123.071C147.362 122.974 147.262 122.876 147.075 122.671" stroke="#F6EBD9" stroke-width="1.29102" stroke-linecap="round"/>
<path d="M121.231 160.538C121.365 160.361 121.766 159.884 122.173 159.372C122.519 158.935 122.881 158.248 123.324 157.605C123.731 157.014 124.446 156.452 125.012 155.946C125.417 155.584 125.786 155.149 126.159 154.674C126.798 153.86 127.451 153.075 128.224 152.242C128.83 151.589 129.461 150.955 130.428 149.964C131.102 149.272 131.38 148.925 131.745 148.502C132.108 148.08 132.442 147.616 132.749 147.208C132.886 147.026 132.956 146.766 132.919 146.459C132.85 145.883 132.351 145.335 132.178 144.575C132.063 144.067 132.067 143.519 132.017 143.008C131.966 142.491 131.946 142.017 131.87 141.515C131.775 140.885 131.896 140.441 132.01 140.203C132.066 140.086 132.212 140.035 132.35 140.016C132.636 139.977 132.903 140.073 133.126 140.172C133.756 140.451 134.093 141.92 134.711 143.151C134.979 143.684 135.117 144.265 135.489 144.823C136.356 146.125 137.606 145.409 139.139 145.824C140.142 146.095 141.08 146.231 141.958 146.335C144.126 146.593 145.819 146.957 147.025 147.285C148.3 147.632 149.653 147.948 150.546 148.157C152.182 148.539 152.717 148.762 153.177 148.891C153.62 149.015 153.781 149.684 153.856 150.166C153.928 150.625 152.259 150.193 151.373 150.131C150.807 150.092 149.341 150.018 147.56 149.936C145.918 149.86 143.475 149.52 142.539 149.385C141.95 149.299 141.31 149.274 139.448 149.178C138.465 149.127 137.865 149.08 137.261 149.057C136.915 149.044 136.611 149.013 136.453 149.094C136.027 149.313 136.735 149.976 136.987 150.443C137.359 151.132 137.715 151.932 137.993 152.611C138.242 153.22 138.368 153.727 138.503 154.257C138.641 154.796 138.839 155.393 139.003 155.83C139.089 156.061 139.167 156.29 139.277 156.484C139.509 156.895 140.079 156.9 140.721 157.134C141.534 157.43 142.12 157.681 142.771 157.922C143.428 158.166 143.808 158.446 144.233 158.689C144.635 158.918 145.048 159.109 145.316 159.475C145.387 159.573 145.427 159.693 145.397 159.746C145.197 160.097 144.506 159.633 143.586 159.505C142.932 159.414 142.113 159.298 141.402 159.199C140.644 159.095 139.911 158.972 139.742 159.018C139.348 159.124 139.877 159.847 140.058 160.331C140.22 160.765 140.372 161.057 140.365 161.254C140.357 161.496 139.782 161.539 139.323 161.555C138.718 161.575 138.539 160.403 138.226 159.545C138.181 159.424 138.056 159.527 137.987 159.62C137.64 160.086 137.26 160.83 136.208 162.236C135.761 162.834 135.417 163.294 135.024 163.766C134.938 163.868 134.82 163.879 134.728 163.841C134.237 163.637 134.01 162.947 133.727 162.536C133.106 161.634 135.719 159.431 136.326 158.666C136.557 158.373 136.741 158.107 136.855 157.916C137.158 157.414 136.769 156.19 136.392 155.001C136.127 154.168 135.537 152.713 135.17 151.812C134.938 151.242 134.761 150.761 134.673 150.481C134.632 150.352 134.582 150.256 134.378 150.336C133.097 150.833 132.329 151.667 131.44 152.287C130.152 153.187 129.306 154.103 128.622 154.814C128.154 155.301 127.833 155.754 127.326 156.406C126.973 156.861 125.689 158.362 124.795 159.486C123.937 160.565 123.233 161.288 122.611 161.837C122.378 162.043 122.186 162.172 121.999 162.26C121.902 162.305 121.768 162.239 121.649 162.102C121.53 161.965 121.422 161.73 121.346 161.552C121.27 161.373 121.229 161.258 121.156 160.997" stroke="#F6EBD9" stroke-width="1.29102" stroke-linecap="round"/>
<path d="M125.654 151.346C125.586 151.661 125.541 152.42 125.64 153.101C125.763 153.944 125.902 154.587 125.913 154.696C126.005 155.633 125.588 152.239 125.744 152.015C126.08 151.533 126.554 151.286 126.88 151.04C127.21 151.402 127.348 151.733 127.456 151.937C127.508 152.041 127.555 152.145 127.691 152.552" stroke="#F6EBD9" stroke-width="1.29102" stroke-linecap="round"/>
<path d="M129.711 149.547C129.727 149.751 129.743 149.954 129.715 149.995C129.317 150.56 129.055 147.974 128.901 147.384C128.785 146.94 129.636 146.961 129.871 146.923C129.992 146.903 130.122 146.972 130.247 147.128C130.649 147.953 130.766 148.331 130.847 148.538C130.889 148.641 130.934 148.737 131.186 148.99" stroke="#F6EBD9" stroke-width="1.29102" stroke-linecap="round"/>
<path d="M138.449 145.571C138.381 145.37 138.146 144.503 138.095 143.699C138.086 143.566 138.243 143.533 138.405 143.545C139.225 143.602 139.842 143.956 140.287 144.185C140.784 145.182 140.919 145.526 141.029 145.783C141.092 145.937 141.172 146.136 141.211 146.376" stroke="#F6EBD9" stroke-width="1.29102" stroke-linecap="round"/>
<path d="M143.595 146.335C143.441 146.027 143.391 145.545 143.533 145.104C143.611 144.86 143.99 144.886 144.252 144.925C144.51 144.963 144.72 145.099 144.88 145.253C145.163 145.788 145.442 146.378 145.537 146.575C145.587 146.676 145.642 146.778 145.702 146.907" stroke="#F6EBD9" stroke-width="1.29102" stroke-linecap="round"/>
</svg>
