<svg width="230" height="140" viewBox="0 0 230 140" fill="none" xmlns="http://www.w3.org/2000/svg">
<path d="M34.4384 70.2829L37.2739 72.6784C38.067 73.3425 38.7297 73.9268 39.2619 74.4313C39.794 74.9357 40.0726 75.2073 40.0976 75.2458C39.9717 74.7659 39.5434 73.3381 38.8128 70.9626L38.0252 68.3192L40.3987 66.7819L44.579 70.3813L45.8721 71.5057C45.8472 71.4671 45.7133 71.1018 45.4706 70.4099C45.2278 69.718 44.9656 68.8743 44.6838 67.879L43.6718 64.3024L45.9802 62.8073L49.1166 74.2629L47.0109 75.6268L45.2372 74.1254C44.5892 73.5796 43.8262 72.9302 42.9482 72.1772C42.0718 71.4163 41.4951 70.9065 41.2179 70.6477C41.3313 70.992 41.56 71.7204 41.904 72.833C42.2528 73.9424 42.5389 74.9075 42.7624 75.7283L43.3927 77.9702L41.287 79.3341L32.1156 71.7874L34.4384 70.2829Z" fill="#F6EBD9"/>
<path d="M60.8875 64.5038C61.1493 65.3124 61.0856 66.1221 60.6964 66.9329C60.3044 67.7386 59.6621 68.3915 58.7695 68.8913C58.0423 69.2985 57.3147 69.505 56.5868 69.5108C55.856 69.5116 55.1818 69.3193 54.5642 68.934C53.9437 68.5436 53.4285 67.9823 53.0185 67.2502C52.6057 66.513 52.395 65.7779 52.3864 65.0449C52.3778 64.3119 52.5676 63.6391 52.9557 63.0265C53.3439 62.4139 53.8865 61.9124 54.5836 61.5221C55.2706 61.1374 55.96 60.9391 56.6516 60.9273C57.3483 60.9126 57.9853 61.0796 58.5626 61.4283C59.1421 61.7691 59.613 62.263 59.9752 62.9099C60.1774 63.271 60.3229 63.6013 60.4115 63.9008L55.4768 66.6641C55.7272 67.0641 56.0616 67.3083 56.48 67.3968C56.9034 67.4824 57.3408 67.3989 57.7922 67.1461C58.1332 66.9552 58.3915 66.7282 58.567 66.4652C58.7397 66.1972 58.8136 65.9352 58.7888 65.679L60.8875 64.5038ZM57.5142 63.6853C57.3076 63.3398 57.0164 63.1373 56.6404 63.0777C56.2695 63.0154 55.886 63.0951 55.4898 63.3169C55.0886 63.5416 54.8152 63.8297 54.6696 64.1814C54.529 64.5302 54.5469 64.8858 54.7234 65.2481L57.5142 63.6853Z" fill="#F6EBD9"/>
<path d="M60.0149 54.2007L62.2107 53.0789L67.7214 63.866L65.5256 64.9878L60.0149 54.2007Z" fill="#F6EBD9"/>
<path d="M69.5201 58.4856C69.1655 57.7187 69.0148 56.9684 69.0681 56.2345C69.1214 55.5006 69.3718 54.8371 69.8194 54.2438C70.2669 53.6506 70.8742 53.1767 71.641 52.8221C72.3349 52.5012 73.0122 52.3432 73.673 52.3479C74.3389 52.3502 74.9422 52.5114 75.4828 52.8313C76.0286 53.1489 76.4634 53.6032 76.7874 54.1943L74.5181 55.2436C74.2657 54.9171 73.9617 54.7252 73.606 54.668C73.2531 54.6033 72.894 54.6553 72.5289 54.8242C72.0489 55.0461 71.7386 55.3954 71.5981 55.872C71.4603 56.341 71.5241 56.8624 71.7895 57.4362C72.0524 58.0049 72.4058 58.3924 72.8495 58.5988C73.296 58.7976 73.7645 58.7836 74.2549 58.5569C74.6409 58.3784 74.92 58.1259 75.0919 57.7994C75.2639 57.4729 75.309 57.1322 75.2273 56.7774L77.4967 55.728C77.7219 56.3521 77.7775 56.9723 77.6636 57.5886C77.5548 58.2024 77.2869 58.7665 76.8597 59.2806C76.4354 59.7871 75.8815 60.1984 75.1981 60.5144C74.4312 60.869 73.6768 61.0247 72.9349 60.9815C72.1906 60.9331 71.5241 60.6967 70.9353 60.2724C70.344 59.8429 69.8723 59.2473 69.5201 58.4856Z" fill="#F6EBD9"/>
<path d="M80.7168 53.4048C80.4105 52.6421 80.3081 51.8935 80.4095 51.1591C80.5141 50.4171 80.8094 49.7566 81.2953 49.1774C81.7844 48.5908 82.4342 48.1347 83.245 47.8091C84.0557 47.4835 84.8352 47.3655 85.5835 47.4552C86.335 47.5374 87.0024 47.8113 87.5858 48.2769C88.1724 48.735 88.6189 49.3455 88.9252 50.1082C89.2272 50.8602 89.3249 51.6045 89.2181 52.3411C89.1167 53.0756 88.8214 53.7361 88.3323 54.3228C87.8411 54.9041 87.1981 55.3543 86.4034 55.6735C85.5927 55.9991 84.8089 56.1218 84.0521 56.0418C83.2985 55.9542 82.6283 55.6814 82.0417 55.2233C81.4605 54.763 81.0188 54.1568 80.7168 53.4048ZM83.0465 52.4506C83.2714 53.0106 83.6183 53.404 84.0872 53.6306C84.5592 53.8499 85.0593 53.8534 85.5873 53.6414C86.11 53.4314 86.4633 53.0851 86.6473 52.6025C86.8345 52.1123 86.8156 51.5872 86.5907 51.0272C86.3679 50.4725 86.0242 50.0871 85.5596 49.8711C85.0982 49.6476 84.6009 49.643 84.0675 49.8572C83.5341 50.0714 83.1755 50.4198 82.9915 50.9025C82.8054 51.3799 82.8237 51.8959 83.0465 52.4506Z" fill="#F6EBD9"/>
<path d="M100.905 41.4438C101.723 41.1721 102.476 41.2129 103.162 41.5663C103.849 41.9197 104.336 42.5273 104.622 43.3891L106.268 48.3475L103.936 49.1219L102.477 44.7281C102.329 44.2808 102.102 43.9716 101.797 43.8004C101.492 43.6292 101.167 43.6006 100.824 43.7148C100.398 43.8561 100.115 44.1075 99.9748 44.469C99.8326 44.8251 99.8376 45.2322 99.9898 45.6904L101.408 49.9615L99.1171 50.7223L97.658 46.3285C97.5131 45.8921 97.2881 45.5883 96.9829 45.4171C96.6777 45.246 96.3342 45.2238 95.9524 45.3506C95.5488 45.4846 95.2795 45.7315 95.1446 46.0912C95.0079 46.4455 95.0138 46.8463 95.1623 47.2936L96.5807 51.5646L94.2406 52.3417L91.7299 44.7815L93.89 44.0641L94.2219 44.7352C94.3568 44.3573 94.5844 44.0213 94.9046 43.7272C95.2284 43.4258 95.6031 43.2045 96.0286 43.0632C96.5632 42.8857 97.0857 42.8454 97.5964 42.9423C98.107 43.0392 98.5366 43.2569 98.8852 43.5953C98.9785 43.092 99.1998 42.6551 99.5492 42.2847C99.8968 41.9089 100.349 41.6286 100.905 41.4438Z" fill="#F6EBD9"/>
<path d="M117.287 42.6988C117.341 43.547 117.08 44.316 116.503 45.0058C115.924 45.6901 115.141 46.1644 114.152 46.4288C113.347 46.6441 112.591 46.6649 111.884 46.491C111.176 46.3116 110.57 45.9591 110.067 45.4333C109.561 44.9021 109.201 44.2311 108.984 43.4204C108.765 42.6042 108.742 41.8399 108.915 41.1274C109.087 40.4149 109.437 39.8097 109.964 39.3117C110.491 38.8137 111.141 38.4615 111.913 38.255C112.673 38.0516 113.39 38.0294 114.063 38.1884C114.742 38.346 115.318 38.6649 115.792 39.1451C116.27 39.6183 116.604 40.213 116.796 40.9293C116.903 41.329 116.962 41.685 116.974 41.9971L111.511 43.4585C111.655 43.9079 111.918 44.227 112.302 44.4159C112.691 44.6033 113.136 44.6302 113.636 44.4965C114.013 44.3955 114.319 44.2392 114.554 44.0276C114.788 43.8105 114.924 43.5748 114.963 43.3204L117.287 42.6988ZM114.22 41.0739C114.104 40.6882 113.872 40.4202 113.522 40.2698C113.178 40.1179 112.787 40.1006 112.348 40.2179C111.904 40.3367 111.568 40.5486 111.34 40.8534C111.118 41.1568 111.048 41.5058 111.13 41.9004L114.22 41.0739Z" fill="#F6EBD9"/>
<path d="M131.765 36.1488L130.292 36.4337L131.418 42.2574L128.997 42.7256L127.871 36.9019L126.432 37.1802L126.046 35.1826L127.485 34.9043L127.093 32.8812L129.514 32.413L129.905 34.436L131.378 34.1512L131.765 36.1488Z" fill="#F6EBD9"/>
<path d="M135.841 37.3745C135.721 36.5614 135.796 35.8096 136.065 35.119C136.34 34.4218 136.781 33.8482 137.388 33.3981C138.001 32.9415 138.739 32.6493 139.603 32.5214C140.467 32.3936 141.253 32.4604 141.96 32.7219C142.671 32.9769 143.257 33.3987 143.716 33.9873C144.18 34.5695 144.472 35.2671 144.592 36.0802C144.71 36.8819 144.632 37.6284 144.357 38.3199C144.087 39.0106 143.646 39.5842 143.034 40.0408C142.421 40.4917 141.69 40.7798 140.843 40.9051C139.979 41.033 139.188 40.9698 138.471 40.7157C137.758 40.4551 137.17 40.0337 136.706 39.4515C136.248 38.8686 135.96 38.1762 135.841 37.3745ZM138.329 36.9891C138.418 37.5861 138.663 38.0494 139.066 38.3791C139.474 38.7022 139.96 38.8221 140.523 38.7389C141.08 38.6564 141.504 38.4019 141.796 37.9754C142.092 37.5423 142.196 37.0272 142.107 36.4302C142.02 35.8389 141.775 35.3841 141.374 35.0658C140.977 34.741 140.495 34.6207 139.926 34.7048C139.358 34.7889 138.928 35.0442 138.636 35.4708C138.344 35.8917 138.242 36.3978 138.329 36.9891Z" fill="#F6EBD9"/>
<path d="M150.367 39.6849C149.927 39.732 149.552 39.6305 149.242 39.3805C148.937 39.1241 148.764 38.7987 148.722 38.4044C148.677 37.9929 148.778 37.6325 149.022 37.3231C149.272 37.0131 149.617 36.8345 150.057 36.7874C150.491 36.7409 150.864 36.8455 151.175 37.1012C151.491 37.3564 151.671 37.684 151.713 38.084C151.755 38.4727 151.648 38.8251 151.393 39.1415C151.144 39.4572 150.802 39.6384 150.367 39.6849Z" fill="#F6EBD9"/>
<path d="M157.103 39.0539C156.662 39.0887 156.29 38.9767 155.987 38.718C155.689 38.4532 155.525 38.1231 155.494 37.7277C155.461 37.3151 155.572 36.9577 155.824 36.6552C156.083 36.3524 156.433 36.1836 156.874 36.1488C157.31 36.1146 157.679 36.2296 157.982 36.494C158.291 36.758 158.462 37.0905 158.493 37.4916C158.524 37.8812 158.407 38.2306 158.143 38.5396C157.885 38.8482 157.538 39.0197 157.103 39.0539Z" fill="#F6EBD9"/>
<path d="M163.853 38.6127C163.411 38.635 163.043 38.5126 162.747 38.2455C162.457 37.9724 162.302 37.6378 162.282 37.2417C162.261 36.8284 162.382 36.4742 162.643 36.179C162.91 35.8835 163.264 35.7246 163.706 35.7023C164.143 35.6803 164.509 35.8057 164.805 36.0785C165.106 36.351 165.267 36.6882 165.287 37.0901C165.307 37.4804 165.181 37.8263 164.908 38.1278C164.641 38.429 164.29 38.5907 163.853 38.6127Z" fill="#F6EBD9"/>
<path d="M25.1423 65.8C25.4254 65.5109 28.2603 62.6164 33.7392 58.593C37.8813 55.5513 39.7511 53.8286 41.2939 52.7384C43.9151 50.886 47.8574 49.244 52.119 46.993C54.2689 45.8574 56.103 45.3723 57.7693 44.5119C60.4364 43.1349 64.5722 41.4741 68.5265 39.6178C70.8412 38.5312 73.2048 37.6161 77.611 35.7288C80.455 34.5106 84.683 33.1291 87.0611 32.3299C89.4392 31.5307 89.8775 31.4491 95.2846 29.845C100.692 28.241 111.054 25.1171 116.638 23.4763C123.911 21.339 126.916 21.5653 129.536 21.1959C134.574 20.4858 137.604 20.5478 141.154 20.4027C145.386 20.2297 148.501 19.6863 155.919 19.0177C159.808 18.6672 162.624 18.8753 165.146 18.726C172.654 18.2814 176.844 19.1814 179.013 19.5138C180.598 19.7568 182.222 20.6781 184.275 21.6263C186.074 22.4567 187.689 22.9826 190.808 24.2531C191.309 24.4573 190.928 24.7555 190.593 24.9241C188.918 25.7671 186.565 27.0563 184.548 28.5507C182.87 29.7936 181.305 31.6104 180.256 32.8959C179.307 34.0604 178.37 35.2605 176.52 38.1317C175.529 39.6692 174.939 41.1271 174.474 42.5957C173.916 44.3552 174.264 46.208 176.109 52.2311C176.628 53.9234 177.19 54.5884 177.237 55.0771C177.416 56.9463 172.714 55.1093 167.008 55.317C163.041 55.4614 155.632 56.0724 151.228 56.4509C146.823 56.8294 145.653 57.0518 143.055 57.3433C136.476 58.0815 130.865 58.6665 128.432 59.2C127.127 59.4861 121.704 60.6393 113.198 62.3986C108.072 63.4589 102.912 65.3304 97.1669 67.0787C91.1533 68.9087 85.9581 71.5965 81.9543 73.4295C74.3566 76.908 68.9656 79.035 68.1245 79.6186C65.7717 81.2512 62.0625 83.8527 56.8222 87.3021C52.9555 89.8473 51.7512 91.4013 50.3325 92.9796C48.4803 95.0403 47.1565 98.535 46.2076 100.88C45.6971 102.141 44.0682 97.9147 42.9309 96.8009C41.4071 95.3086 35.2582 91.0413 29.8235 87.8134C27.6462 86.5202 24.6953 87.0561 21.9128 87.338C20.0831 87.5233 17.8125 88.0319 14.7761 88.946C13.4993 89.3304 11.5185 89.9724 10.4724 90.0614C9.42619 90.1504 9.38113 89.6876 9.38094 89.1777C9.37956 85.5386 12.427 80.5038 13.9986 77.8061C15.1275 75.8682 16.8089 74.5746 18.6672 72.2245C20.0843 70.4323 21.7693 68.4518 23.0345 66.8364C24.0774 65.3783 24.7625 64.5614 25.3781 64.1582C25.7189 63.9857 26.1171 63.8783 26.7745 64.0128" stroke="#F7EAD7" stroke-width="2" stroke-linecap="round"/>
<path d="M23.94 87.0912C23.9157 87.5091 23.5703 89.3047 21.2569 95.3112C19.4475 100.009 18.8972 102.294 17.6369 105.985C15.7662 111.463 14.1521 113.329 11.4702 118.407C10.8441 119.592 15.1781 116.903 17.6961 115.912C22.9753 113.834 27.6164 112.462 32.3778 110.973C36.4451 109.701 37.747 109.59 38.3341 109.705C39.7459 109.98 37.8647 114.661 37.161 117.549C36.1337 121.767 34.9914 125.146 33.9342 127.482C32.4851 130.684 30.6171 134.789 30.537 135.103C30.14 136.658 32.8146 132.109 34.4878 130.223C36.8342 127.577 39.0034 125.197 41.1675 122.856C42.8156 121.073 45.8786 117.052 48.1269 114.344C49.5283 112.656 51.334 112.076 52.4955 111.119C53.9173 109.947 56.1917 108.398 58.6644 107.062C61.8581 105.335 63.8381 105.018 64.549 104.665C64.9393 104.471 65.1422 103.876 65.2482 103.305C66.0134 99.1792 62.2503 92.9721 60.9557 90.9539C60.3963 90.4068 59.7258 89.9899 58.8192 89.5567C58.3099 89.3203 57.7004 89.0499 56.3459 88.599" stroke="#F7EAD7" stroke-width="2" stroke-linecap="round"/>
<path d="M185.429 28.2337C185.925 28.2559 187.68 28.5904 189.363 29.048C192.178 29.8133 195.157 30.7833 197.323 31.5057C199.68 32.2919 201.901 33.5242 206.925 36.6523C213.95 41.0264 216.223 44.4006 217.944 45.9157C219.643 47.4106 221.007 48.7958 221.421 49.2905C221.603 49.5076 219.507 48.4477 215.377 47.2518C208.525 45.2676 203.618 44.8547 202.558 44.8117C199.604 44.6918 195.24 44.4474 192.967 44.6874C192.218 44.7665 191.41 44.9199 190.836 45.3286C188.442 47.0336 196.107 51.6564 197.902 53.6621C198.508 54.3385 199.487 57.1579 200.979 61.3693C201.936 64.069 203.549 67.6342 205.239 72.4141C207.089 77.6502 206.81 79.2879 206.836 80.225C206.924 83.4738 199.907 74.1093 195.989 72.4163C193.248 71.2319 188.862 69.6652 185.163 68.4589C175.293 65.2407 173.24 65.5037 171.562 65.559C170.035 65.6093 168.47 65.584 166.687 65.7312C165.994 65.7884 164.975 65.9519 164.308 65.8017C162.392 65.3708 161.754 63.0541 160.357 61.6392C159.009 60.6808 156.561 59.1321 153.966 57.6408C153.46 57.3993 153.121 57.2932 152.421 57.1353" stroke="#F7EAD7" stroke-width="2" stroke-linecap="round"/>
</svg>
